<svg preserveAspectRatio="none" width="100%" height="100%" overflow="visible" style="display: block;" viewBox="0 0 176.544 15.6564" fill="none" xmlns="http://www.w3.org/2000/svg">
<g id="Link - Mouthwash Studio &#226;&#134;&#146; MW.S">
<path d="M0 15.2835V0.325628H11.0188V3.11447H3.22477V15.2835H0ZM1.47583 9.25938V6.52831H9.96316V9.25938H1.47583Z" fill="var(--fill-0, black)"/>
<path d="M12.5918 15.2835V0.325628H19.992C21.0389 0.325628 21.9387 0.498946 22.6915 0.845582C23.4443 1.19222 24.0168 1.68066 24.409 2.31091C24.8011 2.93765 24.9972 3.66944 24.9972 4.50627C24.9972 5.27657 24.8344 5.94708 24.5087 6.51781C24.1866 7.08853 23.7244 7.53846 23.1222 7.86759C22.52 8.19322 21.8092 8.38404 20.9899 8.44006V7.93061C21.7917 7.96913 22.4534 8.10918 22.9751 8.35078C23.4968 8.58887 23.896 8.93726 24.1726 9.39594C24.4527 9.85462 24.6243 10.4358 24.6873 11.1396L24.9079 13.4768C24.9289 13.7219 24.9534 13.9477 24.9814 14.1543C25.0094 14.3609 25.041 14.557 25.076 14.7425C25.1145 14.9281 25.16 15.1084 25.2125 15.2835H21.9615C21.9055 15.0839 21.8582 14.8633 21.8197 14.6217C21.7812 14.3801 21.7497 14.1228 21.7252 13.8497C21.7181 13.7972 21.7111 13.7446 21.7041 13.6921C21.7006 13.6361 21.6971 13.5818 21.6936 13.5293L21.5518 11.7909C21.5098 11.2307 21.4013 10.7842 21.2262 10.4516C21.0511 10.1155 20.799 9.87213 20.4699 9.72157C20.1408 9.56751 19.7136 9.49047 19.1884 9.49047H14.4668V7.02201H19.2882C19.7924 7.02201 20.2266 6.93972 20.5907 6.77516C20.9584 6.61059 21.2402 6.37075 21.4363 6.05563C21.6324 5.737 21.7304 5.35185 21.7304 4.90017C21.7304 4.466 21.6376 4.10011 21.452 3.80249C21.2665 3.50488 20.9969 3.28079 20.6432 3.13023C20.2896 2.97617 19.8624 2.89914 19.3617 2.89914H14.5036L15.8166 1.69116V15.2835H12.5918Z" fill="var(--fill-0, black)"/>
<path d="M26.1896 15.2835L31.8303 0.325628H35.3702L41.0634 15.2835H37.6548L34.6559 6.58608C34.4773 6.03987 34.3058 5.50591 34.1412 4.98421C33.9801 4.4625 33.8261 3.94955 33.679 3.44535C33.532 2.94115 33.3849 2.4317 33.2378 1.917H33.9416C33.7981 2.45271 33.6562 2.96216 33.5162 3.44535C33.3796 3.92504 33.2273 4.43099 33.0593 4.9632C32.8947 5.49541 32.7231 6.03287 32.5446 6.57558L29.5246 15.2835H26.1896ZM29.803 12.0272L30.0131 9.55875H37.387L37.5865 12.0272H29.803Z" fill="var(--fill-0, black)"/>
<path d="M47.9651 15.6564C46.6346 15.6564 45.4966 15.4586 44.5513 15.0629C43.6094 14.6638 42.8794 14.072 42.3612 13.2877C41.843 12.5034 41.5523 11.5335 41.4893 10.3781H44.6826C44.7246 11.0258 44.8821 11.5493 45.1553 11.9484C45.4319 12.3476 45.8118 12.6382 46.2949 12.8203C46.7781 12.9989 47.3646 13.0881 48.0544 13.0881C48.6916 13.0881 49.2274 13.0129 49.6615 12.8623C50.0957 12.7082 50.4213 12.4859 50.6384 12.1953C50.8555 11.9012 50.964 11.5423 50.964 11.1186C50.964 10.7615 50.8782 10.4586 50.7067 10.21C50.5386 9.96141 50.269 9.75133 49.8979 9.57976C49.5302 9.40819 49.0365 9.25938 48.4168 9.13334L46.2057 8.68691C45.3303 8.51184 44.5775 8.25274 43.9473 7.9096C43.317 7.56647 42.8233 7.10779 42.4662 6.53356C42.1091 5.95934 41.9305 5.25731 41.9305 4.42749C41.9305 3.55915 42.1371 2.7941 42.5502 2.13234C42.9634 1.47058 43.5989 0.950623 44.4567 0.572475C45.3146 0.190825 46.3877 0 47.6762 0C48.9402 0 50.0064 0.180321 50.8747 0.540962C51.7466 0.898102 52.4154 1.42331 52.881 2.11658C53.3502 2.80985 53.6146 3.65719 53.6741 4.65858H50.5964C50.5474 4.18239 50.4143 3.78499 50.1972 3.46636C49.9801 3.14423 49.6633 2.90089 49.2466 2.73632C48.8299 2.57176 48.3047 2.48948 47.671 2.48948C47.1248 2.48948 46.6608 2.556 46.2792 2.68906C45.8975 2.82211 45.6087 3.01818 45.4126 3.27729C45.2165 3.53289 45.1185 3.84101 45.1185 4.20165C45.1185 4.51327 45.1885 4.77938 45.3286 4.99996C45.4686 5.21705 45.7032 5.40612 46.0323 5.56718C46.365 5.72475 46.8202 5.86305 47.3979 5.9821L49.6195 6.43378C50.6664 6.64036 51.526 6.94147 52.1983 7.33713C52.874 7.72928 53.3747 8.21948 53.7004 8.80771C54.026 9.39244 54.1888 10.0822 54.1888 10.877C54.1888 11.8399 53.9525 12.6802 53.4798 13.398C53.0106 14.1158 52.3086 14.6725 51.3737 15.0682C50.4423 15.4603 49.3061 15.6564 47.9651 15.6564Z" fill="var(--fill-0, black)"/>
<path d="M56.0707 15.2835V0.325628H67.5412V3.07246H59.2954V12.5052H67.641V15.2835H56.0707ZM57.7461 8.99153V6.32873H66.7219V8.99153H57.7461Z" fill="var(--fill-0, black)"/>
<path d="M69.7293 15.2835V0.325628H77.1295C78.1764 0.325628 79.0762 0.498946 79.829 0.845582C80.5818 1.19222 81.1543 1.68066 81.5465 2.31091C81.9386 2.93765 82.1347 3.66944 82.1347 4.50627C82.1347 5.27657 81.9719 5.94708 81.6463 6.51781C81.3241 7.08853 80.8619 7.53846 80.2597 7.86759C79.6575 8.19322 78.9467 8.38404 78.1274 8.44006V7.93061C78.9292 7.96913 79.5909 8.10918 80.1126 8.35078C80.6344 8.58887 81.0335 8.93726 81.3101 9.39594C81.5902 9.85462 81.7618 10.4358 81.8248 11.1396L82.0454 13.4768C82.0664 13.7219 82.0909 13.9477 82.1189 14.1543C82.1469 14.3609 82.1785 14.557 82.2135 14.7425C82.252 14.9281 82.2975 15.1084 82.35 15.2835H79.099C79.043 15.0839 78.9957 14.8633 78.9572 14.6217C78.9187 14.3801 78.8872 14.1228 78.8627 13.8497C78.8557 13.7972 78.8487 13.7446 78.8417 13.6921C78.8382 13.6361 78.8346 13.5818 78.8311 13.5293L78.6893 11.7909C78.6473 11.2307 78.5388 10.7842 78.3637 10.4516C78.1886 10.1155 77.9365 9.87213 77.6074 9.72157C77.2783 9.56751 76.8511 9.49047 76.3259 9.49047H71.6043V7.02201H76.4257C76.9299 7.02201 77.3641 6.93972 77.7282 6.77516C78.0959 6.61059 78.3777 6.37075 78.5738 6.05563C78.7699 5.737 78.8679 5.35185 78.8679 4.90017C78.8679 4.466 78.7751 4.10011 78.5896 3.80249C78.404 3.50488 78.1344 3.28079 77.7807 3.13023C77.4271 2.97617 76.9999 2.89914 76.4992 2.89914H71.6411L72.9541 1.69116V15.2835H69.7293Z" fill="var(--fill-0, black)"/>
<path d="M89.3942 15.2835V0.325628H95.2502C96.8504 0.325628 98.2141 0.616242 99.3416 1.19747C100.469 1.7787 101.325 2.62953 101.91 3.74997C102.498 4.86691 102.792 6.21844 102.792 7.80456C102.792 9.34167 102.502 10.6704 101.92 11.7909C101.343 12.9113 100.481 13.7744 99.3363 14.3801C98.1949 14.9824 96.7978 15.2835 95.1452 15.2835H89.3942ZM94.8931 12.5472C95.891 12.5472 96.7296 12.3826 97.4088 12.0535C98.0916 11.7209 98.6116 11.2044 98.9687 10.5041C99.3293 9.80035 99.5097 8.90049 99.5097 7.80456C99.5097 6.70163 99.3293 5.79828 98.9687 5.0945C98.6081 4.39072 98.0899 3.87602 97.4141 3.55039C96.7383 3.22477 95.912 3.06195 94.9351 3.06195H92.619V12.5472H94.8931Z" fill="var(--fill-0, black)"/>
<path d="M103.033 15.2835L108.674 0.325628H112.214L117.907 15.2835H114.498L111.499 6.58608C111.321 6.03987 111.149 5.50591 110.985 4.98421C110.824 4.4625 110.669 3.94955 110.522 3.44535C110.375 2.94115 110.228 2.4317 110.081 1.917H110.785C110.641 2.45271 110.5 2.96216 110.36 3.44535C110.223 3.92504 110.071 4.43099 109.903 4.9632C109.738 5.49541 109.567 6.03287 109.388 6.57558L106.368 15.2835H103.033ZM106.646 12.0272L106.856 9.55875H114.23L114.43 12.0272H106.646Z" fill="var(--fill-0, black)"/>
<path d="M119.276 15.2835V0.325628H122.669L127.585 8.19322C127.952 8.80246 128.324 9.43971 128.698 10.105C129.073 10.7702 129.479 11.5003 129.917 12.2951C129.955 12.3651 129.992 12.4334 130.027 12.4999C130.065 12.5664 130.104 12.6347 130.142 12.7047L129.15 13.251C129.143 13.1039 129.136 12.9586 129.129 12.815C129.122 12.668 129.117 12.5209 129.113 12.3739C129.078 11.6176 129.052 10.8928 129.034 10.1995C129.02 9.50273 129.01 8.83222 129.003 8.18796V0.325628H132.133V15.2835H128.698L124.234 8.13019C123.88 7.54896 123.53 6.96598 123.183 6.38125C122.84 5.79302 122.504 5.2118 122.175 4.63757C121.849 4.06334 121.534 3.49787 121.23 2.94115L122.275 2.69956C122.303 3.3228 122.326 3.9478 122.343 4.57455C122.364 5.20129 122.38 5.80703 122.39 6.39176C122.401 6.97299 122.408 7.55071 122.411 8.12494V15.2835H119.276Z" fill="var(--fill-0, black)"/>
<path d="M134.678 15.2835V0.325628H137.903V15.2835H134.678Z" fill="var(--fill-0, black)"/>
<path d="M140.438 15.2835V0.325628H151.909V3.07246H143.663V12.5052H152.009V15.2835H140.438ZM142.114 8.99153V6.32873H151.09V8.99153H142.114Z" fill="var(--fill-0, black)"/>
<path d="M154.097 15.2835V0.325628H157.322V12.4947H164.486V15.2835H154.097Z" fill="var(--fill-0, black)"/>
<path d="M166.156 15.2835V0.325628H169.38V12.4947H176.544V15.2835H166.156Z" fill="var(--fill-0, black)"/>
</g>
</svg>
