<svg preserveAspectRatio="none" width="100%" height="100%" overflow="visible" style="display: block;" viewBox="0 0 145.65 13.0944" fill="none" xmlns="http://www.w3.org/2000/svg">
<g id="Link - Mouthwash Studio &#226;&#134;&#146; MW.S">
<path d="M0 12.7996V0.2684H8.954V2.2704H2.3012V12.7996H0ZM1.0956 7.4844V5.5176H8.0344V7.4844H1.0956Z" fill="var(--fill-0, black)"/>
<path d="M10.3599 12.7996V0.2684H16.3439C17.2005 0.2684 17.9382 0.410667 18.5571 0.6952C19.1761 0.9768 19.6498 1.3772 19.9783 1.8964C20.3069 2.4156 20.4711 3.0228 20.4711 3.718C20.4711 4.34573 20.3406 4.8972 20.0795 5.3724C19.8214 5.84467 19.4562 6.21867 18.9839 6.4944C18.5117 6.7672 17.9587 6.92853 17.3251 6.9784V6.6352C17.9323 6.6704 18.4383 6.78627 18.8431 6.9828C19.2479 7.1764 19.5603 7.45653 19.7803 7.8232C20.0003 8.18693 20.1367 8.64307 20.1895 9.1916L20.3787 11.2376C20.3993 11.4429 20.4213 11.6351 20.4447 11.814C20.4682 11.9929 20.4961 12.1631 20.5283 12.3244C20.5635 12.4857 20.6031 12.6441 20.6471 12.7996H18.3195C18.2697 12.6265 18.2271 12.4344 18.1919 12.2232C18.1567 12.012 18.1289 11.7891 18.1083 11.5544C18.1054 11.5075 18.101 11.462 18.0951 11.418C18.0922 11.3711 18.0893 11.3241 18.0863 11.2772L17.9587 9.768C17.9206 9.27813 17.8238 8.888 17.6683 8.5976C17.5158 8.30427 17.2958 8.0916 17.0083 7.9596C16.7209 7.8276 16.3469 7.7616 15.8863 7.7616H11.6799V5.9356H15.8643C16.3337 5.9356 16.737 5.8608 17.0743 5.7112C17.4117 5.55867 17.6713 5.33573 17.8531 5.0424C18.0379 4.74907 18.1303 4.39267 18.1303 3.9732C18.1303 3.5772 18.0438 3.24427 17.8707 2.9744C17.7006 2.7016 17.4527 2.49627 17.1271 2.3584C16.8015 2.22053 16.407 2.1516 15.9435 2.1516H11.6975L12.6611 1.2672V12.7996H10.3599Z" fill="var(--fill-0, black)"/>
<path d="M21.575 12.7996L26.3622 0.2684H28.9098L33.7322 12.7996H31.2814L28.5358 5.0908C28.3891 4.65667 28.2483 4.2328 28.1134 3.8192C27.9785 3.4056 27.8479 3.0008 27.7218 2.6048C27.5986 2.20587 27.4754 1.79667 27.3522 1.3772H27.8978C27.7805 1.7996 27.6631 2.20293 27.5458 2.5872C27.4285 2.97147 27.2994 3.37627 27.1586 3.8016C27.0207 4.224 26.877 4.65227 26.7274 5.0864L23.9642 12.7996H21.575ZM24.4086 9.7416L24.6462 7.9112H30.7622L30.9778 9.7416H24.4086Z" fill="var(--fill-0, black)"/>
<path d="M39.5403 13.0944C38.4521 13.0944 37.5193 12.9316 36.7419 12.606C35.9646 12.2775 35.3618 11.7876 34.9335 11.1364C34.5053 10.4823 34.2662 9.6712 34.2163 8.7032H36.4911C36.5263 9.30453 36.6715 9.79293 36.9267 10.1684C37.1849 10.5409 37.5369 10.8123 37.9827 10.9824C38.4286 11.1525 38.9683 11.2376 39.6019 11.2376C40.1915 11.2376 40.6873 11.1643 41.0891 11.0176C41.4939 10.8709 41.7975 10.6568 41.9999 10.3752C42.2053 10.0936 42.3079 9.75187 42.3079 9.35C42.3079 9.0156 42.2287 8.73253 42.0703 8.5008C41.9149 8.26613 41.6641 8.06813 41.3179 7.9068C40.9747 7.74253 40.5127 7.60027 39.9319 7.48L38.1895 7.1236C37.4533 6.974 36.8211 6.75987 36.2931 6.4812C35.7681 6.1996 35.3545 5.82267 35.0523 5.3504C34.7531 4.87813 34.6035 4.30027 34.6035 3.6168C34.6035 2.904 34.7766 2.27627 35.1227 1.7336C35.4689 1.19093 35.991 0.767067 36.6891 0.462C37.3873 0.154 38.2467 0 39.2675 0C40.3059 0 41.183 0.154 41.8987 0.462C42.6174 0.767067 43.1674 1.20853 43.5487 1.7864C43.9301 2.36427 44.1457 3.06093 44.1955 3.8764H41.9911C41.9471 3.4276 41.8225 3.05213 41.6171 2.75C41.4147 2.44493 41.117 2.21467 40.7239 2.0592C40.3338 1.9008 39.8439 1.8216 39.2543 1.8216C38.7469 1.8216 38.3142 1.88613 37.9563 2.0152C37.6014 2.14427 37.3315 2.332 37.1467 2.5784C36.9649 2.8248 36.8739 3.12107 36.8739 3.4672C36.8739 3.7664 36.9399 4.0216 37.0719 4.2328C37.2039 4.44107 37.4269 4.62147 37.7407 4.774C38.0546 4.9236 38.4887 5.0556 39.0431 5.17L40.8119 5.5352C41.6802 5.7112 42.393 5.962 42.9503 6.2876C43.5106 6.61027 43.9257 7.01213 44.1955 7.4932C44.4683 7.97427 44.6047 8.54333 44.6047 9.2004C44.6047 9.9748 44.4155 10.6553 44.0371 11.242C43.6587 11.8257 43.0897 12.2804 42.3299 12.606C41.5731 12.9316 40.6433 13.0944 39.5403 13.0944Z" fill="var(--fill-0, black)"/>
<path d="M46.3038 12.7996V0.2684H55.623V2.2484H48.605V10.802H55.7022V12.7996H46.3038ZM47.4962 7.348V5.412H54.9674V7.348H47.4962Z" fill="var(--fill-0, black)"/>
<path d="M57.5747 12.7996V0.2684H63.5587C64.4152 0.2684 65.153 0.410667 65.7719 0.6952C66.3908 0.9768 66.8646 1.3772 67.1931 1.8964C67.5216 2.4156 67.6859 3.0228 67.6859 3.718C67.6859 4.34573 67.5554 4.8972 67.2943 5.3724C67.0362 5.84467 66.671 6.21867 66.1987 6.4944C65.7264 6.7672 65.1735 6.92853 64.5399 6.9784V6.6352C65.1471 6.6704 65.6531 6.78627 66.0579 6.9828C66.4627 7.1764 66.7751 7.45653 66.9951 7.8232C67.2151 8.18693 67.3515 8.64307 67.4043 9.1916L67.5935 11.2376C67.614 11.4429 67.636 11.6351 67.6595 11.814C67.683 11.9929 67.7108 12.1631 67.7431 12.3244C67.7783 12.4857 67.8179 12.6441 67.8619 12.7996H65.5343C65.4844 12.6265 65.4419 12.4344 65.4067 12.2232C65.3715 12.012 65.3436 11.7891 65.3231 11.5544C65.3202 11.5075 65.3158 11.462 65.3099 11.418C65.307 11.3711 65.304 11.3241 65.3011 11.2772L65.1735 9.768C65.1354 9.27813 65.0386 8.888 64.8831 8.5976C64.7306 8.30427 64.5106 8.0916 64.2231 7.9596C63.9356 7.8276 63.5616 7.7616 63.1011 7.7616H58.8947V5.9356H63.0791C63.5484 5.9356 63.9518 5.8608 64.2891 5.7112C64.6264 5.55867 64.886 5.33573 65.0679 5.0424C65.2527 4.74907 65.3451 4.39267 65.3451 3.9732C65.3451 3.5772 65.2586 3.24427 65.0855 2.9744C64.9154 2.7016 64.6675 2.49627 64.3419 2.3584C64.0163 2.22053 63.6218 2.1516 63.1583 2.1516H58.9123L59.8759 1.2672V12.7996H57.5747Z" fill="var(--fill-0, black)"/>
<path d="M73.8946 12.7996V0.2684H78.629C79.9666 0.2684 81.1018 0.5148 82.0346 1.0076C82.9703 1.5004 83.6787 2.21467 84.1598 3.1504C84.6408 4.08613 84.8814 5.214 84.8814 6.534C84.8814 7.82173 84.6394 8.93493 84.1554 9.8736C83.6743 10.8123 82.9556 11.5353 81.9994 12.0428C81.046 12.5473 79.8756 12.7996 78.4882 12.7996H73.8946ZM78.321 10.8284C79.2303 10.8284 79.9959 10.6788 80.6178 10.3796C81.2396 10.0804 81.7134 9.61253 82.039 8.976C82.3675 8.33947 82.5318 7.52547 82.5318 6.534C82.5318 5.5308 82.366 4.7124 82.0346 4.0788C81.706 3.44227 81.2338 2.97733 80.6178 2.684C80.0047 2.38773 79.2538 2.2396 78.365 2.2396H76.1958V10.8284H78.321Z" fill="var(--fill-0, black)"/>
<path d="M85.1784 12.7996L89.9656 0.2684H92.5132L97.3356 12.7996H94.8848L92.1392 5.0908C91.9925 4.65667 91.8517 4.2328 91.7168 3.8192C91.5818 3.4056 91.4513 3.0008 91.3252 2.6048C91.202 2.20587 91.0788 1.79667 90.9556 1.3772H91.5012C91.3838 1.7996 91.2665 2.20293 91.1492 2.5872C91.0318 2.97147 90.9028 3.37627 90.762 3.8016C90.6241 4.224 90.4804 4.65227 90.3308 5.0864L87.5676 12.7996H85.1784ZM88.012 9.7416L88.2496 7.9112H94.3656L94.5812 9.7416H88.012Z" fill="var(--fill-0, black)"/>
<path d="M98.6019 12.7996V0.2684H101.075L105.633 7.4668C105.926 7.94493 106.221 8.4436 106.518 8.9628C106.817 9.47907 107.15 10.0657 107.516 10.7228C107.546 10.7756 107.575 10.8284 107.604 10.8812C107.634 10.934 107.664 10.9883 107.697 11.044L106.971 11.4136C106.965 11.2992 106.959 11.1863 106.953 11.0748C106.95 10.9604 106.946 10.846 106.94 10.7316C106.916 10.1156 106.897 9.54067 106.883 9.0068C106.868 8.47 106.861 7.95667 106.861 7.4668V0.2684H109.083V12.7996H106.575L102.492 6.3316C102.195 5.8564 101.899 5.3724 101.603 4.8796C101.306 4.38387 101.02 3.89693 100.745 3.4188C100.469 2.94067 100.205 2.47427 99.9527 2.0196L100.727 1.8084C100.748 2.32173 100.765 2.84093 100.78 3.366C100.798 3.89107 100.809 4.39853 100.815 4.8884C100.824 5.37827 100.83 5.85787 100.833 6.3272V12.7996H98.6019Z" fill="var(--fill-0, black)"/>
<path d="M111.368 12.7996V0.2684H113.669V12.7996H111.368Z" fill="var(--fill-0, black)"/>
<path d="M115.953 12.7996V0.2684H125.272V2.2484H118.254V10.802H125.351V12.7996H115.953ZM117.145 7.348V5.412H124.617V7.348H117.145Z" fill="var(--fill-0, black)"/>
<path d="M127.224 12.7996V0.2684H129.525V10.7976H135.685V12.7996H127.224Z" fill="var(--fill-0, black)"/>
<path d="M137.189 12.7996V0.2684H139.49V10.7976H145.65V12.7996H137.189Z" fill="var(--fill-0, black)"/>
</g>
</svg>
