<svg preserveAspectRatio="none" width="100%" height="100%" overflow="visible" style="display: block;" viewBox="0 0 220 17.1164" fill="none" xmlns="http://www.w3.org/2000/svg">
<g id="Container">
<g id="Link - Mouthwash Studio &#226;&#134;&#146; MW.S">
<path d="M0 15.804V3.2728H9.2312V5.6092H2.7016V15.804H0ZM1.2364 10.7572V8.4692H8.3468V10.7572H1.2364Z" fill="var(--fill-0, black)"/>
<path d="M10.549 15.804V3.2728H16.7486C17.6257 3.2728 18.3795 3.418 19.0102 3.7084C19.6409 3.9988 20.1205 4.408 20.449 4.936C20.7775 5.46107 20.9418 6.07413 20.9418 6.7752C20.9418 7.42053 20.8054 7.98227 20.5326 8.4604C20.2627 8.93853 19.8755 9.31547 19.371 9.5912C18.8665 9.864 18.271 10.0239 17.5846 10.0708V9.644C18.2563 9.67627 18.8107 9.7936 19.2478 9.996C19.6849 10.1955 20.0193 10.4873 20.251 10.8716C20.4857 11.2559 20.6294 11.7428 20.6822 12.3324L20.867 14.2904C20.8846 14.4957 20.9051 14.6849 20.9286 14.858C20.9521 15.0311 20.9785 15.1953 21.0078 15.3508C21.0401 15.5063 21.0782 15.6573 21.1222 15.804H18.3986C18.3517 15.6368 18.3121 15.452 18.2798 15.2496C18.2475 15.0472 18.2211 14.8316 18.2006 14.6028C18.1947 14.5588 18.1889 14.5148 18.183 14.4708C18.1801 14.4239 18.1771 14.3784 18.1742 14.3344L18.0554 12.878C18.0202 12.4087 17.9293 12.0347 17.7826 11.756C17.6359 11.4744 17.4247 11.2705 17.149 11.1444C16.8733 11.0153 16.5154 10.9508 16.0754 10.9508H12.1198V8.8828H16.159C16.5814 8.8828 16.9451 8.81387 17.2502 8.676C17.5582 8.53813 17.7943 8.3372 17.9586 8.0732C18.1229 7.80627 18.205 7.4836 18.205 7.1052C18.205 6.74147 18.1273 6.43493 17.9718 6.1856C17.8163 5.93627 17.5905 5.74853 17.2942 5.6224C16.9979 5.49333 16.6401 5.4288 16.2206 5.4288H12.1506L13.2506 4.4168V15.804H10.549Z" fill="var(--fill-0, black)"/>
<path d="M21.9407 15.804L26.6663 3.2728H29.6319L34.4015 15.804H31.5459L29.0335 8.5176C28.8839 8.06 28.7402 7.61267 28.6023 7.1756C28.4674 6.73853 28.3383 6.3088 28.2151 5.8864C28.0919 5.464 27.9687 5.0372 27.8455 4.606H28.4351C28.3149 5.0548 28.1961 5.4816 28.0787 5.8864C27.9643 6.28827 27.8367 6.71213 27.6959 7.158C27.5581 7.60387 27.4143 8.05413 27.2647 8.5088L24.7347 15.804H21.9407ZM24.9679 13.076L25.1439 11.008H31.3215L31.4887 13.076H24.9679Z" fill="var(--fill-0, black)"/>
<path d="M40.1835 16.1164C39.0689 16.1164 38.1155 15.9507 37.3235 15.6192C36.5345 15.2848 35.9229 14.7891 35.4887 14.132C35.0546 13.4749 34.8112 12.6624 34.7584 11.6944H37.4335C37.4687 12.2371 37.6007 12.6756 37.8295 13.01C38.0613 13.3444 38.3795 13.5879 38.7843 13.7404C39.1891 13.89 39.6805 13.9648 40.2584 13.9648C40.7922 13.9648 41.241 13.9017 41.6047 13.7756C41.9685 13.6465 42.2413 13.4603 42.4231 13.2168C42.605 12.9704 42.6959 12.6697 42.6959 12.3148C42.6959 12.0156 42.6241 11.7619 42.4804 11.5536C42.3396 11.3453 42.1137 11.1693 41.8027 11.0256C41.4947 10.8819 41.0811 10.7572 40.5619 10.6516L38.7095 10.2776C37.9762 10.1309 37.3455 9.91387 36.8175 9.6264C36.2895 9.33893 35.8759 8.95467 35.5767 8.4736C35.2775 7.99253 35.1279 7.4044 35.1279 6.7092C35.1279 5.98173 35.301 5.3408 35.6471 4.7864C35.9933 4.232 36.5257 3.7964 37.2444 3.4796C37.963 3.15987 38.8621 3 39.9415 3C41.0005 3 41.8937 3.15107 42.6211 3.4532C43.3515 3.7524 43.9118 4.1924 44.3019 4.7732C44.695 5.354 44.9165 6.06387 44.9664 6.9028H42.388C42.3469 6.50387 42.2354 6.17093 42.0536 5.904C41.8717 5.63413 41.6062 5.43027 41.2571 5.2924C40.9081 5.15453 40.4681 5.0856 39.9371 5.0856C39.4795 5.0856 39.0909 5.14133 38.7711 5.2528C38.4514 5.36427 38.2094 5.52853 38.0452 5.7456C37.8809 5.95973 37.7987 6.21787 37.7987 6.52C37.7987 6.78107 37.8574 7.004 37.9748 7.1888C38.0921 7.37067 38.2886 7.52907 38.5644 7.664C38.843 7.796 39.2243 7.91187 39.7083 8.0116L41.5695 8.39C42.4466 8.56307 43.1667 8.81533 43.7299 9.1468C44.2961 9.47533 44.7156 9.886 44.9883 10.3788C45.2611 10.8687 45.3975 11.4465 45.3975 12.1124C45.3975 12.9191 45.1995 13.6231 44.8035 14.2244C44.4105 14.8257 43.8224 15.2921 43.0392 15.6236C42.2589 15.9521 41.307 16.1164 40.1835 16.1164Z" fill="var(--fill-0, black)"/>
<path d="M46.9741 15.804V3.2728H56.5837V5.574H49.6757V13.4764H56.6673V15.804H46.9741ZM48.3777 10.5328V8.302H55.8973V10.5328H48.3777Z" fill="var(--fill-0, black)"/>
<path d="M58.4169 15.804V3.2728H64.6165C65.4935 3.2728 66.2474 3.418 66.8781 3.7084C67.5087 3.9988 67.9883 4.408 68.3169 4.936C68.6454 5.46107 68.8097 6.07413 68.8097 6.7752C68.8097 7.42053 68.6733 7.98227 68.4005 8.4604C68.1306 8.93853 67.7434 9.31547 67.2389 9.5912C66.7343 9.864 66.1389 10.0239 65.4525 10.0708V9.644C66.1242 9.67627 66.6786 9.7936 67.1157 9.996C67.5527 10.1955 67.8871 10.4873 68.1189 10.8716C68.3535 11.2559 68.4973 11.7428 68.5501 12.3324L68.7349 14.2904C68.7525 14.4957 68.773 14.6849 68.7965 14.858C68.8199 15.0311 68.8463 15.1953 68.8757 15.3508C68.9079 15.5063 68.9461 15.6573 68.9901 15.804H66.2665C66.2195 15.6368 66.1799 15.452 66.1477 15.2496C66.1154 15.0472 66.089 14.8316 66.0685 14.6028C66.0626 14.5588 66.0567 14.5148 66.0509 14.4708C66.0479 14.4239 66.045 14.3784 66.0421 14.3344L65.9233 12.878C65.8881 12.4087 65.7971 12.0347 65.6505 11.756C65.5038 11.4744 65.2926 11.2705 65.0169 11.1444C64.7411 11.0153 64.3833 10.9508 63.9433 10.9508H59.9877V8.8828H64.0269C64.4493 8.8828 64.813 8.81387 65.1181 8.676C65.4261 8.53813 65.6622 8.3372 65.8265 8.0732C65.9907 7.80627 66.0729 7.4836 66.0729 7.1052C66.0729 6.74147 65.9951 6.43493 65.8397 6.1856C65.6842 5.93627 65.4583 5.74853 65.1621 5.6224C64.8658 5.49333 64.5079 5.4288 64.0885 5.4288H60.0185L61.1185 4.4168V15.804H58.4169Z" fill="var(--fill-0, black)"/>
<path d="M74.8914 15.804V3.2728H79.7974C81.138 3.2728 82.2805 3.51627 83.225 4.0032C84.1696 4.49013 84.8868 5.20293 85.3766 6.1416C85.8694 7.07733 86.1158 8.2096 86.1158 9.5384C86.1158 10.8261 85.8724 11.9393 85.3854 12.878C84.9014 13.8167 84.1798 14.5397 83.2206 15.0472C82.2644 15.5517 81.094 15.804 79.7094 15.804H74.8914ZM79.4982 13.5116C80.3342 13.5116 81.0368 13.3737 81.6058 13.098C82.1778 12.8193 82.6134 12.3867 82.9126 11.8C83.2148 11.2104 83.3658 10.4565 83.3658 9.5384C83.3658 8.6144 83.2148 7.8576 82.9126 7.268C82.6105 6.6784 82.1764 6.2472 81.6102 5.9744C81.0441 5.7016 80.3518 5.5652 79.5334 5.5652H77.593V13.5116H79.4982Z" fill="var(--fill-0, black)"/>
<path d="M86.3176 15.804L91.0432 3.2728H94.0088L98.7784 15.804H95.9228L93.4104 8.5176C93.2608 8.06 93.117 7.61267 92.9792 7.1756C92.8442 6.73853 92.7152 6.3088 92.592 5.8864C92.4688 5.464 92.3456 5.0372 92.2224 4.606H92.812C92.6917 5.0548 92.5729 5.4816 92.4556 5.8864C92.3412 6.28827 92.2136 6.71213 92.0728 7.158C91.9349 7.60387 91.7912 8.05413 91.6416 8.5088L89.1116 15.804H86.3176ZM89.3448 13.076L89.5208 11.008H95.6984L95.8656 13.076H89.3448Z" fill="var(--fill-0, black)"/>
<path d="M99.9254 15.804V3.2728H102.768L106.886 9.864C107.194 10.3744 107.505 10.9083 107.819 11.4656C108.133 12.0229 108.473 12.6345 108.84 13.3004C108.872 13.3591 108.903 13.4163 108.932 13.472C108.964 13.5277 108.997 13.5849 109.029 13.6436L108.197 14.1012C108.192 13.978 108.186 13.8563 108.18 13.736C108.174 13.6128 108.17 13.4896 108.167 13.3664C108.137 12.7328 108.115 12.1256 108.101 11.5448C108.089 10.9611 108.08 10.3993 108.074 9.8596V3.2728H110.697V15.804H107.819L104.079 9.8112C103.783 9.32427 103.489 8.83587 103.199 8.346C102.912 7.8532 102.63 7.36627 102.354 6.8852C102.081 6.40413 101.817 5.9304 101.562 5.464L102.438 5.2616C102.461 5.78373 102.48 6.30733 102.495 6.8324C102.513 7.35747 102.526 7.86493 102.535 8.3548C102.543 8.84173 102.549 9.32573 102.552 9.8068V15.804H99.9254Z" fill="var(--fill-0, black)"/>
<path d="M112.829 15.804V3.2728H115.531V15.804H112.829Z" fill="var(--fill-0, black)"/>
<path d="M117.655 15.804V3.2728H127.264V5.574H120.356V13.4764H127.348V15.804H117.655ZM119.058 10.5328V8.302H126.578V10.5328H119.058Z" fill="var(--fill-0, black)"/>
<path d="M129.097 15.804V3.2728H131.799V13.4676H137.801V15.804H129.097Z" fill="var(--fill-0, black)"/>
<path d="M139.2 15.804V3.2728H141.901V13.4676H147.903V15.804H139.2Z" fill="var(--fill-0, black)"/>
</g>
</g>
</svg>
